<svg width="1024" height="1024" viewBox="0 0 1024 1024" fill="none" xmlns="http://www.w3.org/2000/svg">
<rect width="1024" height="1024" rx="100" fill="#0D5ED7"/>
<path fill-rule="evenodd" clip-rule="evenodd" d="M530.794 80.8595C531.513 79.7224 532.728 79.0258 534.072 79.0624C544.595 79.3488 593.522 82.5519 666.419 116.29C747.847 153.976 815.002 216.78 858.052 295.424C859.113 297.362 858.378 299.788 856.43 300.83L730.516 368.204C728.568 369.246 726.146 368.509 725.075 366.577C697.488 316.816 654.776 277.076 603.078 253.149C552.163 229.585 495.196 222.59 440.189 233.057C439.449 233.198 438.765 233.548 438.217 234.066C364.666 303.504 318.762 401.917 318.762 511.052C318.762 621.442 365.728 720.863 440.766 790.424C441.319 790.937 442.008 791.281 442.75 791.415C496.962 801.187 552.953 794.05 603.078 770.851C654.776 746.925 697.488 707.184 725.075 657.423C726.146 655.49 728.568 654.754 730.516 655.796L856.43 723.169C858.378 724.212 859.113 726.638 858.052 728.576C815.002 807.22 747.847 870.024 666.419 907.711C593.522 941.449 544.595 944.651 534.072 944.937C532.728 944.974 531.513 944.277 530.794 943.14L435.787 792.875C435.083 791.762 433.867 791.069 432.552 791.008C283.884 784.133 165.462 661.425 165.462 511.057C165.462 360.283 284.526 237.318 433.759 231.054C435.081 230.998 436.305 230.304 437.012 229.185L530.794 80.8595Z" fill="#E3E3E3"/>
</svg>
