<svg width="1920" height="1080" viewBox="0 0 1920 1080" fill="none" xmlns="http://www.w3.org/2000/svg">
<g clip-path="url(#clip0_1315_36)">
<rect width="1920" height="1080" fill="#0D5ED7"/>
<path fill-rule="evenodd" clip-rule="evenodd" d="M655.893 424.741C656.612 423.604 657.846 422.911 659.187 423.009C663.909 423.355 676.176 425.023 693.386 432.988C714.508 442.763 732.076 458.793 743.741 478.859C744.852 480.769 744.111 483.197 742.164 484.239L713.283 499.692C711.335 500.735 708.92 499.994 707.772 498.106C700.31 485.837 689.354 476.032 676.268 469.975C662.764 463.725 647.685 461.788 633.078 464.392C632.336 464.524 631.651 464.875 631.108 465.397C611.585 484.129 599.43 510.481 599.43 539.674C599.43 569.206 611.868 595.831 631.789 614.601C632.338 615.118 633.027 615.464 633.771 615.589C648.162 618.01 662.977 616.04 676.268 609.889C689.354 603.833 700.31 594.027 707.772 581.758C708.92 579.871 711.335 579.13 713.283 580.172L742.164 595.626C744.111 596.668 744.852 599.096 743.741 601.006C732.076 621.072 714.508 637.101 693.386 646.876C676.175 654.842 663.909 656.509 659.187 656.855C657.846 656.953 656.612 656.26 655.893 655.124L631.875 617.136C631.171 616.023 629.96 615.334 628.646 615.247C589.191 612.627 558 579.796 558 539.677C558 499.451 589.359 466.551 628.964 464.087C630.285 464.005 631.504 463.316 632.211 462.198L655.893 424.741Z" fill="#E3E3E3"/>
<path d="M834.124 552.608L847.82 558.496C845.772 563.232 842.828 567.584 839.116 571.424C835.404 575.136 831.052 578.08 826.188 580.128C821.196 582.176 815.82 583.328 810.316 583.328C804.812 583.328 799.564 582.176 794.572 580.128C789.708 578.08 785.356 575.136 781.644 571.424C777.804 567.712 774.988 563.36 772.94 558.496C770.764 553.504 769.74 548.128 769.74 542.624C769.74 537.12 770.764 531.744 772.94 526.752C774.988 521.888 777.804 517.536 781.644 513.824C785.356 510.112 789.708 507.168 794.572 505.12C804.556 500.896 816.204 500.896 826.188 505.12C831.052 507.168 835.404 510.112 839.116 513.824C842.828 517.536 845.772 521.888 847.82 526.752L834.124 532.64C832.844 529.568 830.924 526.752 828.62 524.448C826.188 522.016 823.5 520.224 820.428 518.816C814.028 516.128 806.732 516.128 800.332 518.816C797.26 520.224 794.572 522.016 792.14 524.448C789.836 526.752 787.916 529.568 786.636 532.64C785.228 535.712 784.588 539.168 784.588 542.624C784.588 546.08 785.228 549.408 786.636 552.608C787.916 555.68 789.836 558.496 792.14 560.8C794.572 563.232 797.26 565.024 800.332 566.304C806.732 568.992 814.028 568.992 820.428 566.304C823.5 565.024 826.188 563.232 828.62 560.8C830.924 558.496 832.844 555.68 834.124 552.608ZM858.541 531.872C858.541 515.36 871.853 502.048 888.237 502.048V516.896C880.045 516.896 873.389 523.68 873.389 531.872V582.432H858.541V531.872ZM935.941 501.92C958.469 501.92 976.645 520.224 976.645 542.624V581.792H961.797V572.704H960.901C960.901 572.704 951.813 583.2 936.197 583.328C936.069 583.328 936.069 583.328 935.941 583.328C913.541 583.328 895.365 565.024 895.365 542.624C895.365 520.224 913.541 501.92 935.941 501.92ZM935.941 568.352C950.149 568.352 961.797 556.832 961.797 542.624C961.797 528.416 950.149 516.896 935.941 516.896C921.733 516.896 910.213 528.416 910.213 542.624C910.213 556.832 921.733 568.352 935.941 568.352ZM1021.8 488.736C1013.61 488.736 1006.95 495.392 1006.95 503.584V504.096H1021.8V518.944H1006.95V582.432H992.104V503.584C992.104 487.2 1005.42 473.76 1021.8 473.76V488.736ZM1071.05 504.864V519.712H1050.57V547.872C1050.57 559.136 1059.78 568.224 1071.05 568.224V583.2C1051.46 583.2 1035.72 567.328 1035.72 547.872V474.528H1050.57V504.864H1071.05ZM1126.83 502.56C1149.35 502.56 1167.53 520.864 1167.53 543.264V582.432H1152.68V543.264C1152.68 529.056 1141.03 517.536 1126.83 517.536C1112.62 517.536 1101.1 529.056 1101.1 543.264V582.432H1086.25V473.76H1101.1V513.184H1101.99C1101.99 513.184 1110.95 502.688 1126.57 502.56C1126.7 502.56 1126.83 502.56 1126.83 502.56ZM1245.58 503.456H1260.43V542.624C1260.43 565.024 1242.25 583.328 1219.72 583.328C1197.32 583.328 1179.15 565.024 1179.15 542.624V503.456H1194V542.624C1194 556.832 1205.52 568.352 1219.72 568.352C1233.93 568.352 1245.58 556.832 1245.58 542.624V503.456ZM1315.79 501.92C1338.19 501.92 1356.37 520.224 1356.37 542.624C1356.37 565.024 1338.19 583.328 1315.66 583.328C1293.26 583.328 1275.09 565.024 1275.09 542.624V473.12H1289.94V512.544H1290.83C1290.83 512.544 1299.92 501.92 1315.79 501.92ZM1315.66 568.352C1329.87 568.352 1341.52 556.832 1341.52 542.624C1341.52 528.416 1329.87 516.896 1315.66 516.896C1301.46 516.896 1289.94 528.416 1289.94 542.624C1289.94 556.832 1301.46 568.352 1315.66 568.352Z" fill="#E3E3E3"/>
<rect x="1745.87" y="-135" width="368.92" height="368.92" rx="80" transform="rotate(45 1745.87 -135)" fill="url(#paint0_linear_1315_36)" fill-opacity="0.2"/>
<rect x="2006.87" y="135" width="368.92" height="368.92" rx="80" transform="rotate(45 2006.87 135)" fill="url(#paint1_linear_1315_36)" fill-opacity="0.2"/>
<rect x="1307.87" y="848" width="368.92" height="368.92" rx="80" transform="rotate(45 1307.87 848)" fill="url(#paint2_linear_1315_36)" fill-opacity="0.2"/>
<rect x="1763.87" y="857" width="368.92" height="368.92" rx="80" transform="rotate(45 1763.87 857)" fill="url(#paint3_linear_1315_36)" fill-opacity="0.2"/>
<rect x="250.365" y="852.386" width="368.92" height="368.92" rx="80" transform="rotate(45 250.365 852.386)" fill="url(#paint4_linear_1315_36)" fill-opacity="0.2"/>
<rect x="245.866" y="326" width="368.92" height="368.92" rx="80" transform="rotate(45 245.866 326)" fill="url(#paint5_linear_1315_36)" fill-opacity="0.2"/>
<rect x="-26.1342" y="60" width="368.92" height="368.92" rx="80" transform="rotate(45 -26.1342 60)" fill="url(#paint6_linear_1315_36)" fill-opacity="0.2"/>
<rect x="-26.1342" y="596" width="368.92" height="368.92" rx="80" transform="rotate(45 -26.1342 596)" fill="url(#paint7_linear_1315_36)" fill-opacity="0.2"/>
<rect x="743.866" y="857" width="368.92" height="368.92" rx="80" transform="rotate(45 743.866 857)" fill="url(#paint8_linear_1315_36)" fill-opacity="0.2"/>
</g>
<defs>
<linearGradient id="paint0_linear_1315_36" x1="1930.33" y1="-135" x2="1930.33" y2="233.92" gradientUnits="userSpaceOnUse">
<stop stop-color="white"/>
<stop offset="1" stop-color="#0D5ED7"/>
</linearGradient>
<linearGradient id="paint1_linear_1315_36" x1="2191.33" y1="135" x2="2191.33" y2="503.92" gradientUnits="userSpaceOnUse">
<stop stop-color="white"/>
<stop offset="1" stop-color="#0D5ED7"/>
</linearGradient>
<linearGradient id="paint2_linear_1315_36" x1="1492.33" y1="848" x2="1492.33" y2="1216.92" gradientUnits="userSpaceOnUse">
<stop stop-color="white"/>
<stop offset="1" stop-color="#0D5ED7"/>
</linearGradient>
<linearGradient id="paint3_linear_1315_36" x1="1948.33" y1="857" x2="1948.33" y2="1225.92" gradientUnits="userSpaceOnUse">
<stop stop-color="white"/>
<stop offset="1" stop-color="#0D5ED7"/>
</linearGradient>
<linearGradient id="paint4_linear_1315_36" x1="434.825" y1="852.386" x2="434.825" y2="1221.31" gradientUnits="userSpaceOnUse">
<stop stop-color="white"/>
<stop offset="1" stop-color="#0D5ED7"/>
</linearGradient>
<linearGradient id="paint5_linear_1315_36" x1="430.326" y1="326" x2="430.326" y2="694.92" gradientUnits="userSpaceOnUse">
<stop stop-color="white"/>
<stop offset="1" stop-color="#0D5ED7"/>
</linearGradient>
<linearGradient id="paint6_linear_1315_36" x1="158.326" y1="60" x2="158.326" y2="428.92" gradientUnits="userSpaceOnUse">
<stop stop-color="white"/>
<stop offset="1" stop-color="#0D5ED7"/>
</linearGradient>
<linearGradient id="paint7_linear_1315_36" x1="158.326" y1="596" x2="158.326" y2="964.92" gradientUnits="userSpaceOnUse">
<stop stop-color="white"/>
<stop offset="1" stop-color="#0D5ED7"/>
</linearGradient>
<linearGradient id="paint8_linear_1315_36" x1="928.326" y1="857" x2="928.326" y2="1225.92" gradientUnits="userSpaceOnUse">
<stop stop-color="white"/>
<stop offset="1" stop-color="#0D5ED7"/>
</linearGradient>
<clipPath id="clip0_1315_36">
<rect width="1920" height="1080" fill="white"/>
</clipPath>
</defs>
</svg>
