<svg width="164" height="314" viewBox="0 0 164 314" fill="none" xmlns="http://www.w3.org/2000/svg">
<g clip-path="url(#clip0_1305_48)">
<rect width="164" height="314" fill="#0D5ED7"/>
<path fill-rule="evenodd" clip-rule="evenodd" d="M82.5245 20.643C83.2448 19.5039 84.4941 18.8127 85.8217 19.0447C87.4574 19.3307 89.9619 19.9755 93.1006 21.4281C97.6749 23.5452 101.606 26.7936 104.54 30.8383C105.837 32.6265 105.082 35.0709 103.134 36.1132L100.872 37.324C98.9238 38.3663 96.528 37.5947 95.0978 35.9109C93.3428 33.8446 91.1509 32.1698 88.6621 31.018C85.4223 29.5185 81.8328 28.9759 78.314 29.4382C77.5669 29.5364 76.8787 29.8917 76.3518 30.4303C71.6445 35.2417 68.7413 41.8254 68.7412 49.0883C68.7413 56.4365 71.7124 63.0902 76.5177 67.9159C77.0499 68.4504 77.7419 68.7997 78.4906 68.8909C81.9527 69.3129 85.4764 68.7657 88.6621 67.2914C91.151 66.1395 93.3429 64.4642 95.0979 62.3976C96.528 60.7137 98.9238 59.942 100.872 60.9844L103.134 62.1952C105.082 63.2375 105.837 65.6818 104.54 67.4701C101.606 71.5147 97.6749 74.7631 93.1006 76.8803C89.962 78.3329 87.4575 78.9777 85.8219 79.2636C84.4942 79.4957 83.2448 78.8044 82.5245 77.6652L77.9843 70.485C77.2807 69.3722 76.0691 68.705 74.7664 68.5143C65.2822 67.1256 58.0004 58.9589 58 49.0892C58 39.1938 65.3196 31.0083 74.8399 29.6509C76.1492 29.4642 77.3682 28.7965 78.0751 27.6786L82.5245 20.643Z" fill="#E3E3E3"/>
<path d="M45.76 102.34L47.9 103.26C47.58 104 47.12 104.68 46.54 105.28C45.96 105.86 45.28 106.32 44.52 106.64C43.74 106.96 42.9 107.14 42.04 107.14C41.18 107.14 40.36 106.96 39.58 106.64C38.82 106.32 38.14 105.86 37.56 105.28C36.96 104.7 36.52 104.02 36.2 103.26C35.86 102.48 35.7 101.64 35.7 100.78C35.7 99.92 35.86 99.08 36.2 98.3C36.52 97.54 36.96 96.86 37.56 96.28C38.14 95.7 38.82 95.24 39.58 94.92C41.14 94.26 42.96 94.26 44.52 94.92C45.28 95.24 45.96 95.7 46.54 96.28C47.12 96.86 47.58 97.54 47.9 98.3L45.76 99.22C45.56 98.74 45.26 98.3 44.9 97.94C44.52 97.56 44.1 97.28 43.62 97.06C42.62 96.64 41.48 96.64 40.48 97.06C40 97.28 39.58 97.56 39.2 97.94C38.84 98.3 38.54 98.74 38.34 99.22C38.12 99.7 38.02 100.24 38.02 100.78C38.02 101.32 38.12 101.84 38.34 102.34C38.54 102.82 38.84 103.26 39.2 103.62C39.58 104 40 104.28 40.48 104.48C41.48 104.9 42.62 104.9 43.62 104.48C44.1 104.28 44.52 104 44.9 103.62C45.26 103.26 45.56 102.82 45.76 102.34ZM49.5752 99.1C49.5752 96.52 51.6552 94.44 54.2152 94.44V96.76C52.9352 96.76 51.8952 97.82 51.8952 99.1V107H49.5752V99.1ZM61.6689 94.42C65.1889 94.42 68.0289 97.28 68.0289 100.78V106.9H65.7089V105.48H65.5689C65.5689 105.48 64.1489 107.12 61.7089 107.14C61.6889 107.14 61.6889 107.14 61.6689 107.14C58.1689 107.14 55.3289 104.28 55.3289 100.78C55.3289 97.28 58.1689 94.42 61.6689 94.42ZM61.6689 104.8C63.8889 104.8 65.7089 103 65.7089 100.78C65.7089 98.56 63.8889 96.76 61.6689 96.76C59.4489 96.76 57.6489 98.56 57.6489 100.78C57.6489 103 59.4489 104.8 61.6689 104.8ZM75.0844 92.36C73.8044 92.36 72.7644 93.4 72.7644 94.68V94.76H75.0844V97.08H72.7644V107H70.4444V94.68C70.4444 92.12 72.5244 90.02 75.0844 90.02V92.36ZM82.7794 94.88V97.2H79.5794V101.6C79.5794 103.36 81.0194 104.78 82.7794 104.78V107.12C79.7194 107.12 77.2594 104.64 77.2594 101.6V90.14H79.5794V94.88H82.7794ZM91.4947 94.52C95.0147 94.52 97.8547 97.38 97.8547 100.88V107H95.5347V100.88C95.5347 98.66 93.7147 96.86 91.4947 96.86C89.2747 96.86 87.4747 98.66 87.4747 100.88V107H85.1547V90.02H87.4747V96.18H87.6147C87.6147 96.18 89.0147 94.54 91.4547 94.52C91.4747 94.52 91.4947 94.52 91.4947 94.52ZM110.05 94.66H112.37V100.78C112.37 104.28 109.53 107.14 106.01 107.14C102.51 107.14 99.67 104.28 99.67 100.78V94.66H101.99V100.78C101.99 103 103.79 104.8 106.01 104.8C108.23 104.8 110.05 103 110.05 100.78V94.66ZM121.021 94.42C124.521 94.42 127.361 97.28 127.361 100.78C127.361 104.28 124.521 107.14 121.001 107.14C117.501 107.14 114.661 104.28 114.661 100.78V89.92H116.981V96.08H117.121C117.121 96.08 118.541 94.42 121.021 94.42ZM121.001 104.8C123.221 104.8 125.041 103 125.041 100.78C125.041 98.56 123.221 96.76 121.001 96.76C118.781 96.76 116.981 98.56 116.981 100.78C116.981 103 118.781 104.8 121.001 104.8Z" fill="#E3E3E3"/>
<rect x="141.983" y="160" width="82" height="82" rx="12" transform="rotate(45 141.983 160)" fill="url(#paint0_linear_1305_48)" fill-opacity="0.2"/>
<rect x="199.983" y="100" width="82" height="82" rx="12" transform="rotate(45 199.983 100)" fill="url(#paint1_linear_1305_48)" fill-opacity="0.2"/>
<rect x="200.983" y="219" width="82" height="82" rx="12" transform="rotate(45 200.983 219)" fill="url(#paint2_linear_1305_48)" fill-opacity="0.2"/>
<rect x="23.9828" y="160" width="82" height="82" rx="12" transform="rotate(45 23.9828 160)" fill="url(#paint3_linear_1305_48)" fill-opacity="0.2"/>
<rect x="-35.0172" y="219" width="82" height="82" rx="12" transform="rotate(45 -35.0172 219)" fill="url(#paint4_linear_1305_48)" fill-opacity="0.2"/>
<rect x="-36.0172" y="102" width="82" height="82" rx="12" transform="rotate(45 -36.0172 102)" fill="url(#paint5_linear_1305_48)" fill-opacity="0.2"/>
<rect x="82.9828" y="219" width="82" height="82" rx="12" transform="rotate(45 82.9828 219)" fill="url(#paint6_linear_1305_48)" fill-opacity="0.2"/>
<rect x="141.983" y="278" width="82" height="82" rx="12" transform="rotate(45 141.983 278)" fill="url(#paint7_linear_1305_48)" fill-opacity="0.2"/>
<rect x="23.9828" y="278" width="82" height="82" rx="12" transform="rotate(45 23.9828 278)" fill="url(#paint8_linear_1305_48)" fill-opacity="0.2"/>
</g>
<defs>
<linearGradient id="paint0_linear_1305_48" x1="182.983" y1="160" x2="182.983" y2="242" gradientUnits="userSpaceOnUse">
<stop stop-color="white"/>
<stop offset="1" stop-color="#0D5ED7"/>
</linearGradient>
<linearGradient id="paint1_linear_1305_48" x1="240.983" y1="100" x2="240.983" y2="182" gradientUnits="userSpaceOnUse">
<stop stop-color="white"/>
<stop offset="1" stop-color="#0D5ED7"/>
</linearGradient>
<linearGradient id="paint2_linear_1305_48" x1="241.983" y1="219" x2="241.983" y2="301" gradientUnits="userSpaceOnUse">
<stop stop-color="white"/>
<stop offset="1" stop-color="#0D5ED7"/>
</linearGradient>
<linearGradient id="paint3_linear_1305_48" x1="64.9828" y1="160" x2="64.9828" y2="242" gradientUnits="userSpaceOnUse">
<stop stop-color="white"/>
<stop offset="1" stop-color="#0D5ED7"/>
</linearGradient>
<linearGradient id="paint4_linear_1305_48" x1="5.98279" y1="219" x2="5.98279" y2="301" gradientUnits="userSpaceOnUse">
<stop stop-color="white"/>
<stop offset="1" stop-color="#0D5ED7"/>
</linearGradient>
<linearGradient id="paint5_linear_1305_48" x1="4.98279" y1="102" x2="4.98279" y2="184" gradientUnits="userSpaceOnUse">
<stop stop-color="white"/>
<stop offset="1" stop-color="#0D5ED7"/>
</linearGradient>
<linearGradient id="paint6_linear_1305_48" x1="123.983" y1="219" x2="123.983" y2="301" gradientUnits="userSpaceOnUse">
<stop stop-color="white"/>
<stop offset="1" stop-color="#0D5ED7"/>
</linearGradient>
<linearGradient id="paint7_linear_1305_48" x1="182.983" y1="278" x2="182.983" y2="360" gradientUnits="userSpaceOnUse">
<stop stop-color="white"/>
<stop offset="1" stop-color="#0D5ED7"/>
</linearGradient>
<linearGradient id="paint8_linear_1305_48" x1="64.9828" y1="278" x2="64.9828" y2="360" gradientUnits="userSpaceOnUse">
<stop stop-color="white"/>
<stop offset="1" stop-color="#0D5ED7"/>
</linearGradient>
<clipPath id="clip0_1305_48">
<rect width="164" height="314" fill="white"/>
</clipPath>
</defs>
</svg>
